<?xml version="1.0" encoding="UTF-8" standalone="no"?>
<!DOCTYPE svg PUBLIC "-//W3C//DTD SVG 1.1//EN" "http://www.w3.org/Graphics/SVG/1.1/DTD/svg11.dtd">
<svg width="100%" height="100%" viewBox="0 0 449 240" version="1.1" xmlns="http://www.w3.org/2000/svg" xmlns:xlink="http://www.w3.org/1999/xlink" xml:space="preserve" xmlns:serif="http://www.serif.com/" style="fill-rule:evenodd;clip-rule:evenodd;stroke-linejoin:round;stroke-miterlimit:2;">
    <g transform="matrix(1,0,0,1,-0.48114,-0.0076)">
        <g id="_1st" serif:id="1st" transform="matrix(1,0,0,1,-31.5002,-31.9924)">
            <path d="M136.718,188.824L113.648,188.824L106.515,166.886C104.437,160.476 98.742,156.332 91.999,156.332C85.257,156.332 79.562,160.477 77.483,166.882L70.351,188.824L47.282,188.824C40.539,188.824 34.844,192.965 32.758,199.374C30.68,205.785 32.852,212.48 38.306,216.441L56.978,230.003L49.845,251.941C47.759,258.351 49.938,265.05 55.384,269.011C58.11,270.992 61.235,271.984 64.361,271.984C67.486,271.984 70.611,270.992 73.338,269.011L92.002,255.449L110.666,269.007C116.118,272.976 123.166,272.972 128.618,269.011C134.064,265.05 136.243,258.351 134.158,251.945L127.025,230.003L145.697,216.441C151.15,212.48 153.322,205.785 151.244,199.374C149.156,192.965 143.461,188.824 136.718,188.824Z" style="fill:rgb(247,183,49);fill-rule:nonzero;"/>
            <path d="M479.242,199.375C477.157,192.965 471.461,188.825 464.719,188.825L441.649,188.825L434.516,166.887C432.438,160.477 426.742,156.333 420,156.333C413.258,156.333 407.562,160.478 405.484,166.883L398.351,188.825L375.281,188.825C368.538,188.825 362.843,192.966 360.758,199.375C358.679,205.786 360.851,212.481 366.305,216.442L384.977,230.004L377.844,251.942C375.758,258.352 377.938,265.051 383.383,269.012C386.11,270.993 389.234,271.985 392.36,271.985C395.486,271.985 398.61,270.993 401.337,269.012L420.001,255.45L438.665,269.008C444.118,272.977 451.165,272.973 456.618,269.012C462.063,265.051 464.242,258.352 462.157,251.946L455.024,230.004L473.696,216.442C479.149,212.481 481.32,205.785 479.242,199.375Z" style="fill:rgb(247,183,49);fill-rule:nonzero;"/>
            <path d="M368.64,146.88L326.56,177.52C323.68,179.599 322.56,183.2 323.6,186.48L339.68,235.92C343.04,246 339.6,256.56 330.88,262.72C326.8,265.76 321.92,267.44 316.88,267.44C311.92,267.44 307.04,265.84 302.72,262.72L260.72,232.16C259.36,231.2 257.68,230.64 256,230.64C254.32,230.64 252.64,231.2 251.2,232.16L245.28,236.48L209.28,262.72C205.28,265.6 200.8,267.2 196.241,267.36C195.841,267.44 195.521,267.44 195.121,267.44C190.081,267.44 185.201,265.76 180.961,262.64C172.401,256.56 168.961,246 172.321,235.92L188.401,186.48C189.441,183.2 188.321,179.6 185.441,177.52L143.361,146.96C134.801,140.64 131.441,130.16 134.721,120.16C137.841,110.08 146.8,103.52 157.521,103.52L209.521,103.52C213.041,103.52 216.001,101.36 217.121,98L227.521,65.92L233.201,48.56C234.961,43.12 238.401,38.64 242.961,35.84C246.72,33.36 251.2,32 256,32C260.88,32 265.36,33.36 269.12,35.92C273.6,38.72 277.04,43.12 278.8,48.64L284.48,65.92L294.88,98C296,101.36 298.96,103.52 302.48,103.52L354.48,103.52C365.2,103.52 374.16,110.079 377.28,120.24C380.56,130.16 377.2,140.64 368.64,146.88Z" style="fill:rgb(247,183,49);fill-rule:nonzero;"/>
            <path d="M143.36,146.88L185.44,177.52C188.32,179.599 189.44,183.2 188.4,186.48L172.32,235.92C168.96,246 172.4,256.56 181.12,262.72C185.2,265.76 190.08,267.44 195.12,267.44C200.08,267.44 204.96,265.84 209.28,262.72L251.28,232.16C252.64,231.2 254.32,230.64 256,230.64C257.68,230.64 259.36,231.2 260.8,232.16L266.721,236.48C268.001,231.92 267.201,226.88 264.241,222.72C259.041,215.6 248.961,214 241.841,219.2L199.841,249.76C196.881,251.92 193.361,251.92 190.641,249.92C187.441,247.6 186.401,244.4 187.521,240.96L203.601,191.44C206.801,181.52 203.361,170.72 194.881,164.56L152.72,134C149.92,131.84 148.799,128.559 149.92,125.28C151.04,121.52 153.84,119.52 157.52,119.52L209.52,119.52C219.92,119.52 229.12,112.88 232.32,102.96L248.4,53.6C250.56,46.96 248.16,39.92 242.88,35.92C238.4,38.72 234.96,43.12 233.2,48.64L227.52,65.92L217.12,98C216,101.36 213.04,103.52 209.52,103.52L157.52,103.52C146.8,103.52 137.84,110.079 134.72,120.24C131.44,130.16 134.8,140.64 143.36,146.88Z" style="fill:rgb(254,211,48);fill-rule:nonzero;"/>
            <path d="M263.6,53.52L279.68,102.96C282.88,112.88 292.08,119.52 302.48,119.52L354.48,119.52C358.16,119.52 360.96,121.52 362,124.96C363.2,128.56 362.16,131.84 359.12,134.08L317.12,164.56C308.64,170.72 305.2,181.521 308.4,191.44L324.48,240.88C325.6,244.32 324.56,247.6 321.76,249.6C316,253.68 313.76,260.96 315.76,267.36C316.16,267.44 316.48,267.44 316.88,267.44C321.92,267.44 326.8,265.76 331.04,262.64C339.6,256.56 343.04,246 339.68,235.92L323.6,186.48C322.56,183.2 323.68,179.6 326.56,177.52L368.64,146.96C377.2,140.64 380.56,130.16 377.28,120.16C374.16,110.08 365.201,103.52 354.48,103.52L302.48,103.52C298.96,103.52 296,101.36 294.88,98L284.48,65.92L278.8,48.56C277.04,43.12 273.6,38.64 269.04,35.84C263.84,39.92 261.44,46.88 263.6,53.52Z" style="fill:rgb(183,136,36);fill-rule:nonzero;"/>
            <path d="M232.843,130.633L252.422,120.843C254.902,119.605 257.851,119.734 260.206,121.194C262.562,122.652 264,125.226 264,128L264,196C264,198.209 262.209,200 260,200L252,200C249.791,200 248,198.209 248,196L248,140.946L239.999,144.946C238.023,145.934 235.621,145.133 234.633,143.157L231.054,136C230.066,134.024 230.867,131.621 232.843,130.633Z" style="fill:rgb(183,136,36);fill-rule:nonzero;"/>
        </g>
    </g>
</svg>
