<svg id="Icons" height="512" viewBox="0 0 60 60" width="512" xmlns="http://www.w3.org/2000/svg"><path d="m30 1a29 29 0 1 0 29 29 29 29 0 0 0 -29-29zm0 33a4 4 0 1 1 4-4 4 4 0 0 1 -4 4z" fill="#334973"/><path d="m57.03 19.49-19.48 7.88-2.96-2.96 13.54-17.04a28.966 28.966 0 0 1 8.9 12.12z" fill="#5874a0"/><path d="m48.13 7.37-13.54 17.04-1.96-1.96 7.88-19.48a28.474 28.474 0 0 1 7.62 4.4z" fill="#49648e"/><path d="m2.97 40.51 19.48-7.88 2.96 2.96-13.54 17.04a28.966 28.966 0 0 1 -8.9-12.12z" fill="#5874a0"/><path d="m11.87 52.63 13.54-17.04 1.96 1.96-7.88 19.48a28.474 28.474 0 0 1 -7.62-4.4z" fill="#49648e"/><path d="m30 22a8 8 0 1 0 8 8 8.011 8.011 0 0 0 -8-8zm0 11a3 3 0 1 1 3-3 3.009 3.009 0 0 1 -3 3z" fill="#dfedef"/></svg>