<svg id="Flat" height="512" viewBox="0 0 64 64" width="512" xmlns="http://www.w3.org/2000/svg"><g><path d="m60 21.98999v19.72998c-1.82001 0-3.28998 1.47003-3.28998 3.29004h-9.71002c0-1.31-.83002-2.42004-2-2.83002-.31-.10999-.65002-.16998-1-.16998s-.69.06-1 .16998c-1.16998.40997-2 1.52002-2 2.83002h-34c0-1.65002-1.33002-2.99005-2.97998-3v-20.02002c1.64996-.01001 2.97998-1.34998 2.97998-3h34c0 1.31.83002 2.41998 2 2.83002.31.10999.65002.16998 1 .16998s.69-.06 1-.16998c1.16998-.41003 2-1.52002 2-2.83002h10c0 1.65997 1.34003 3 3 3z" fill="#fcc011"/><g fill="#f9ba1c"><path d="m59 21.80707v18.92291c-1.82001 0-3.28998 1.47003-3.28998 3.29004h-8.87982c.10785.31024.1698.64221.1698.98999h9.71002c0-1.82001 1.46997-3.29004 3.28998-3.29004v-19.72998c-.35272 0-.68597-.07172-1-.18292z"/><path d="m44 41.19c-.31-.10999-.65002-.16998-1-.16998s-.69.06-1 .16998c-1.16998.40997-2 1.52002-2 2.83002h-33.18005c.10931.31146.18005.64123.18005.98999h34c0-1.31.83002-2.42004 2-2.83002.31-.10999.65002-.16998 1-.16998s.69.06 1 .16998c.19385.06793.37402.16138.547.2655-.35608-.57647-.89521-1.02709-1.547-1.25549z"/></g><g fill="#fb9a28"><path d="m20.98999 34.20996.91998 5.78003-4.91998-2.75-4.94 2.71002.96002-5.77002-3.97003-4.10998 5.52002-.82001 2.47998-5.23999 2.45001 5.25995 5.51001.87005z"/><path d="m40 25v2c0 .55228-.44772 1-1 1h-10c-.55228 0-1-.44772-1-1v-2c0-.55228.44772-1 1-1h10c.55228 0 1 .44772 1 1z"/><path d="m44 31c.55225 0 1-.44727 1-1v-2c0-.55273-.44775-1-1-1s-1 .44727-1 1v2c0 .55273.44775 1 1 1z"/><path d="m45 21.82001v2.17999c0 .54999-.45001 1-1 1s-1-.45001-1-1v-2.17999c.31.10999.65002.16998 1 .16998s.69-.06 1-.16998z"/><path d="m43 36c0 .55273.44775 1 1 1s1-.44727 1-1v-2c0-.55273-.44775-1-1-1s-1 .44727-1 1z"/><path d="m45 40v2.17999c-.31-.10999-.65002-.16998-1-.16998s-.69.06-1 .16998v-2.17999c0-.54999.45001-1 1-1s1 .45001 1 1z"/><path d="m49 33h4c.55225 0 1-.44727 1-1s-.44775-1-1-1h-4c-.55225 0-1 .44727-1 1s.44775 1 1 1z"/><path d="m49 37h4c.55225 0 1-.44727 1-1s-.44775-1-1-1h-4c-.55225 0-1 .44727-1 1s.44775 1 1 1z"/><path d="m49 25h6c.55225 0 1-.44727 1-1s-.44775-1-1-1h-6c-.55225 0-1 .44727-1 1s.44775 1 1 1z"/><path d="m49 29h4c.55225 0 1-.44727 1-1s-.44775-1-1-1h-4c-.55225 0-1 .44727-1 1s.44775 1 1 1z"/><path d="m49 41h6c.55225 0 1-.44727 1-1s-.44775-1-1-1h-6c-.55225 0-1 .44727-1 1s.44775 1 1 1z"/><path d="m29 33h10c.55225 0 1-.44727 1-1s-.44775-1-1-1h-10c-.55225 0-1 .44727-1 1s.44775 1 1 1z"/><path d="m29 37h5c.55225 0 1-.44727 1-1s-.44775-1-1-1h-5c-.55225 0-1 .44727-1 1s.44775 1 1 1z"/><path d="m29 41h8c.55225 0 1-.44727 1-1s-.44775-1-1-1h-8c-.55225 0-1 .44727-1 1s.44775 1 1 1z"/></g></g></svg>